<?xml version="1.0" encoding="UTF-8" standalone="no"?>
<!-- Created with Inkscape (http://www.inkscape.org/) -->

<svg
   width="256"
   height="256"
   viewBox="0 0 67.733332 67.733335"
   version="1.1"
   id="svg5"
   inkscape:version="1.1.2 (0a00cf5339, 2022-02-04, custom)"
   sodipodi:docname="SccmAM.svg"
   inkscape:export-filename="C:\dev\github.trondr\SccmAM\src\graphics\SccmAM.png"
   inkscape:export-xdpi="96"
   inkscape:export-ydpi="96"
   xmlns:inkscape="http://www.inkscape.org/namespaces/inkscape"
   xmlns:sodipodi="http://sodipodi.sourceforge.net/DTD/sodipodi-0.dtd"
   xmlns="http://www.w3.org/2000/svg"
   xmlns:svg="http://www.w3.org/2000/svg">
  <sodipodi:namedview
     id="namedview7"
     pagecolor="#ffffff"
     bordercolor="#666666"
     borderopacity="1.0"
     inkscape:pageshadow="2"
     inkscape:pageopacity="0.0"
     inkscape:pagecheckerboard="0"
     inkscape:document-units="px"
     showgrid="false"
     units="px"
     inkscape:zoom="0.5499273"
     inkscape:cx="-712.82149"
     inkscape:cy="329.13441"
     inkscape:window-width="2171"
     inkscape:window-height="1233"
     inkscape:window-x="366"
     inkscape:window-y="128"
     inkscape:window-maximized="0"
     inkscape:current-layer="layer1" />
  <defs
     id="defs2">
    <rect
       x="33.431285"
       y="34.717104"
       width="47.57529"
       height="61.719295"
       id="rect3411" />
    <rect
       x="33.431286"
       y="34.717106"
       width="47.575291"
       height="61.719296"
       id="rect3411-7" />
    <rect
       x="33.431286"
       y="34.717106"
       width="47.575291"
       height="61.719296"
       id="rect3411-7-7" />
    <rect
       x="33.431286"
       y="34.717106"
       width="47.575291"
       height="61.719296"
       id="rect3411-7-7-7" />
  </defs>
  <g
     inkscape:label="Layer 1"
     inkscape:groupmode="layer"
     id="layer1">
    <g
       id="g1798"
       transform="translate(-8.4666671,-5.8208373)">
      <text
         xml:space="preserve"
         transform="matrix(1.008325,0,0,1.008325,-12.525204,2.3034083)"
         id="text3409-0"
         style="font-style:normal;font-variant:normal;font-weight:normal;font-stretch:normal;font-size:30px;line-height:1.25;font-family:Arial;-inkscape-font-specification:Arial;white-space:pre;shape-inside:url(#rect3411-7)"><tspan
           x="33.431641"
           y="61.73943"
           id="tspan1848">A</tspan></text>
      <text
         xml:space="preserve"
         transform="matrix(1.0104627,0,0,1.0104627,7.3386642,2.2173342)"
         id="text3409-0-7"
         style="font-style:normal;font-variant:normal;font-weight:normal;font-stretch:normal;font-size:30px;line-height:1.25;font-family:Arial;-inkscape-font-specification:Arial;white-space:pre;shape-inside:url(#rect3411-7-7)"><tspan
           x="33.431641"
           y="61.73943"
           id="tspan1850">M</tspan></text>
    </g>
    <g
       id="g1792"
       transform="translate(0,6.3500003)">
      <path
         id="path705"
         style="fill:#ffffff;fill-rule:evenodd;stroke:#000000;stroke-width:0.727009;stroke-linecap:round;stroke-linejoin:round;stroke-miterlimit:4;stroke-dasharray:none;stroke-opacity:1"
         d="m 21.448273,15.446226 0.574513,-1.742081 2.511004,0.352356 1.17784,-1.35843 -0.562493,-2.369604 1.61987,-0.7467351 1.535389,1.9789111 1.790273,-0.129203 v 0 l 0.888691,1.779633 c -6.27131,-2.053582 -8.200131,7.389326 -1.898955,8.325325 l 0.566339,1.136724 -0.690855,-0.0083 -1.192268,1.880523 -1.665112,-0.389623 0.186215,-2.302482 -1.339708,-1.172863 -2.276526,0.653742 -0.780684,-1.550682 1.899076,-1.565273 -0.110095,-1.703025 z"
         sodipodi:nodetypes="cccccccccccccccccccccc"
         sodipodi:stroke-cmyk="(0 0 0 0.8)" />
      <path
         id="path705-2"
         style="fill:#ffffff;fill-rule:evenodd;stroke:#000000;stroke-width:0.727009;stroke-linecap:round;stroke-linejoin:round;stroke-miterlimit:4;stroke-dasharray:none;stroke-opacity:1"
         d="m 31.606087,15.446226 0.574513,-1.742081 2.511004,0.352356 1.17784,-1.358431 -0.562493,-2.369605 1.61987,-0.7467348 1.535389,1.9789118 1.790273,-0.129203 v 0 l 0.888691,1.779634 c -6.27131,-2.053584 -8.200131,7.389326 -1.898955,8.325325 l 0.566339,1.136724 -0.690855,-0.0083 -1.192268,1.880523 -1.665112,-0.389623 0.186215,-2.302482 -1.339708,-1.172863 -2.276526,0.653742 -0.780684,-1.550682 1.899076,-1.565273 -0.110095,-1.703025 z"
         sodipodi:nodetypes="cccccccccccccccccccccc"
         sodipodi:stroke-cmyk="(0 0 0 0.8)" />
      <text
         xml:space="preserve"
         transform="matrix(0.98468703,0,0,0.98468703,-30.940305,-36.245774)"
         id="text3409"
         style="font-style:normal;font-variant:normal;font-weight:normal;font-stretch:normal;font-size:30px;line-height:1.25;font-family:Arial;-inkscape-font-specification:Arial;white-space:pre;shape-inside:url(#rect3411)"><tspan
           x="33.431641"
           y="61.73943"
           id="tspan1852">S</tspan></text>
      <text
         xml:space="preserve"
         transform="matrix(1.0104627,0,0,1.0104627,7.0677559,-37.476546)"
         id="text3409-0-7-5"
         style="font-style:normal;font-variant:normal;font-weight:normal;font-stretch:normal;font-size:30px;line-height:1.25;font-family:Arial;-inkscape-font-specification:Arial;white-space:pre;shape-inside:url(#rect3411-7-7-7)"><tspan
           x="33.431641"
           y="61.73943"
           id="tspan1854">m</tspan></text>
    </g>
  </g>
</svg>
